<?xml version="1.0" encoding="UTF-8" standalone="no"?>
<svg
   version="1.1"
   id="Layer_1"
   x="0px"
   y="0px"
   width="100%"
   viewBox="0 0 1024 1024"
   enable-background="new 0 0 1024 1024"
   xml:space="preserve"
   sodipodi:docname="20250602_1252_Sanding in Motion_simple_compose_01jwr49fwve1tt9996psefd23z.svg"
   inkscape:version="1.4 (86a8ad7, 2024-10-11)"
   xmlns:inkscape="http://www.inkscape.org/namespaces/inkscape"
   xmlns:sodipodi="http://sodipodi.sourceforge.net/DTD/sodipodi-0.dtd"
   xmlns="http://www.w3.org/2000/svg"
   xmlns:svg="http://www.w3.org/2000/svg"><defs
   id="defs56" /><sodipodi:namedview
   id="namedview56"
   pagecolor="#ffffff"
   bordercolor="#000000"
   borderopacity="0.25"
   inkscape:showpageshadow="2"
   inkscape:pageopacity="0.0"
   inkscape:pagecheckerboard="0"
   inkscape:deskcolor="#d1d1d1"
   inkscape:zoom="0.42822266"
   inkscape:cx="937.59635"
   inkscape:cy="580.30559"
   inkscape:window-width="1920"
   inkscape:window-height="1121"
   inkscape:window-x="-7"
   inkscape:window-y="-7"
   inkscape:window-maximized="1"
   inkscape:current-layer="Layer_1" />
<path
   fill="none"
   opacity="1.000000"
   stroke="#000000"
   stroke-linecap="round"
   stroke-linejoin="round"
   stroke-width="3.000000"
   d=" M106.500000,667.500000   C99.362946,681.232117 93.607376,695.537476 92.114693,711.011047   C90.019936,732.725830 95.131592,752.797363 107.455017,771.030396   C118.506447,787.381531 132.919495,800.224609 148.475723,812.031982   C159.395721,820.320312 171.419510,826.784668 183.562180,832.876038   C206.847748,844.557129 231.418411,852.983643 256.485809,860.050354   C278.082733,866.138672 299.963837,870.846252 321.987640,875.064514   C346.322693,879.725403 370.809845,882.931274 395.491486,885.097107   C424.793396,887.668396 454.136597,888.535767 483.496124,887.837402   C498.165741,887.488403 512.864685,886.703186 527.518738,885.180481   C535.812561,884.318665 544.198914,883.871155 552.486694,882.887817   C561.346558,881.836609 570.209167,880.675354 579.037537,879.228943   C585.834167,878.115417 592.674194,877.043152 599.509521,876.066650   C616.053345,873.703125 632.308777,869.919250 648.470520,865.882019   C671.547668,860.117371 694.607361,854.134705 716.985168,845.959473   C746.900085,835.030701 776.158569,822.713623 804.102417,807.184326   C823.600708,796.348450 841.994507,784.028503 860.000000,771.000000  "
   id="path1" />

<path
   fill="none"
   opacity="1.000000"
   stroke="#000000"
   stroke-linecap="round"
   stroke-linejoin="round"
   stroke-width="3.000000"
   d=" M511.500000,251.000000   C504.195404,254.784393 497.853882,260.033813 491.040466,264.560913   C477.207397,273.752014 462.155792,280.447815 447.015808,287.036346   C442.579712,288.966827 438.219025,291.135040 434.029175,293.550598   C428.878723,296.519897 425.032135,300.423584 422.853027,306.446838   C417.485626,321.282654 413.094910,336.593384 405.415070,350.452942   C392.390717,373.957489 379.240967,397.412567 365.363129,420.417450   C355.362366,436.995483 345.925232,453.842468 337.002045,471.001068   C333.665131,477.417725 329.422913,483.326752 327.418793,490.477234   C324.836243,499.691376 323.452148,509.098083 322.035706,518.505371   C320.382874,529.482361 319.017395,540.502380 317.495056,551.499329   C316.017944,562.169189 314.485352,572.831299 313.004120,583.500549   C311.487640,594.424011 309.921783,605.621277 306.469330,615.820374   C303.155151,625.610901 304.017883,635.383850 302.242798,645.044617   C300.375549,655.207153 297.694580,665.080688 295.030823,675.008301   C292.716064,683.635254 290.457764,692.288147 288.571838,701.015503   C287.266541,707.055847 295.758514,714.028381 301.975952,711.928833   C312.899323,708.240173 321.495941,697.568481 322.045319,686.502258   C322.403931,679.279907 321.827820,672.466064 318.083252,665.952148   C313.837128,658.565674 310.039581,657.146729 302.460571,660.920837   C301.458862,661.419739 301.012695,663.025391 299.500000,662.500000  "
   id="path3" />


<path
   fill="none"
   opacity="1.000000"
   stroke="#000000"
   stroke-linecap="round"
   stroke-linejoin="round"
   stroke-width="3.000000"
   d=" M773.500000,201.500000   C767.239197,208.266754 763.134949,216.458511 759.117859,224.558456   C753.559937,235.765305 749.137451,247.485184 745.358521,259.455322   C744.297241,262.816986 743.833984,266.275757 743.690674,269.508453   C742.980408,285.534149 741.889771,301.538788 740.378784,317.488525   C738.747742,334.705933 736.791748,351.941956 733.832458,368.970886   C730.566345,387.765076 726.094788,406.354370 721.963257,424.991852   C719.609924,435.608276 715.460327,445.383392 708.551575,454.041168   C683.862610,484.980530 663.378723,518.798279 641.995789,551.997314   C630.154907,570.381531 618.138489,588.652405 605.445129,606.460876   C602.628845,610.411926 601.079834,615.403076 596.500000,618.000000  "
   id="path6" />
<path
   fill="none"
   opacity="1.000000"
   stroke="#000000"
   stroke-linecap="round"
   stroke-linejoin="round"
   stroke-width="3.000000"
   d=" M775.000000,226.500000   C774.006348,222.451645 775.679443,218.550980 775.602539,214.498047   C775.234131,195.091446 769.757568,178.393402 755.182678,164.310928   C734.562683,144.387344 711.464844,128.778641 684.996948,118.007538   C670.639709,112.164871 655.727173,108.098839 640.475403,105.653358   C632.112915,104.312508 623.446594,103.279037 615.015015,105.555550   C606.572937,107.834908 600.798157,113.578461 596.487488,120.992729   C592.881714,127.194763 589.443054,133.518906 585.449707,139.466248   C571.862305,159.702240 558.082947,179.854431 539.460144,195.953888   C525.212036,208.271362 509.565582,218.696869 493.506958,228.511398   C472.312012,241.465088 451.078491,254.359299 430.029938,267.547760   C415.141052,276.876770 400.219116,286.181091 384.412109,293.818054   C377.676483,297.072327 374.541473,302.404083 372.071472,308.528839   C368.460052,317.483948 363.270691,325.648468 359.518250,334.507721   C348.828735,359.745087 334.410065,383.119568 322.933258,407.969177   C318.357849,417.875824 314.161316,427.924652 309.877380,437.947571   C309.072388,439.830933 308.799408,441.246613 309.500000,443.000000  "
   id="path7" />
<path
   fill="none"
   opacity="1.000000"
   stroke="#000000"
   stroke-linecap="round"
   stroke-linejoin="round"
   stroke-width="3.000000"
   d=" M563.000000,398.500000   C564.560974,405.973846 564.485657,413.336700 561.499634,420.499847   C555.467957,434.969086 547.862061,448.362427 535.498535,458.498230   C533.808411,459.883789 532.384949,461.475525 531.500427,463.500183   C524.629333,479.227997 514.463989,493.015686 505.427307,507.454498   C500.159790,515.871033 494.228760,523.877563 488.459015,531.970764   C486.895905,534.163452 485.110687,536.396973 482.939728,537.913696   C478.965424,540.690247 477.336243,544.527771 476.491760,548.998413   C472.489288,570.187073 464.610870,589.974304 452.823608,607.883911   C444.340668,620.772827 437.663452,634.172241 433.427490,648.979248   C429.026672,664.362549 420.771332,677.964294 412.490540,691.494202   C408.167145,698.558167 404.085693,705.802551 398.492310,711.993042   C386.193573,725.604736 371.231659,733.409363 352.507812,731.902893   C343.803589,731.202576 336.717010,727.102051 332.500000,719.000000  "
   id="path8" />
<path
   fill="none"
   opacity="1.000000"
   stroke="#000000"
   stroke-linecap="round"
   stroke-linejoin="round"
   stroke-width="3.000000"
   d=" M158.000000,728.500000   C158.806610,736.509705 162.074875,743.703003 166.072800,750.456909   C174.041275,763.918335 184.969284,774.724609 197.490402,784.012939   C221.263397,801.648132 248.120407,812.828186 275.984192,822.047791   C295.158020,828.391968 314.785889,832.948853 334.535706,836.817688   C346.226379,839.107727 358.090332,840.778442 369.985870,842.124878   C384.800446,843.801575 399.587677,845.331299 414.490814,846.164490   C428.491638,846.947083 442.491669,847.508179 456.500000,848.000000  "
   id="path9" />
<path
   fill="none"
   opacity="1.000000"
   stroke="#000000"
   stroke-linecap="round"
   stroke-linejoin="round"
   stroke-width="3.000000"
   d=" M767.500000,727.500000   C759.292908,732.831421 752.079895,739.466431 744.076111,745.107971   C718.199280,763.347290 689.839294,776.628235 660.481567,787.952271   C637.704468,796.737976 614.184082,803.215515 590.476807,808.903198   C578.442932,811.790283 566.240662,814.229736 553.979065,815.840820   C541.856750,817.433655 529.780457,819.447510 517.510986,820.182983   C508.013519,820.752197 498.471100,821.274536 489.021851,822.218750   C478.146576,823.305542 467.330017,822.558533 456.500000,823.000000  "
   id="path10" />
<path
   fill="none"
   opacity="1.000000"
   stroke="#000000"
   stroke-linecap="round"
   stroke-linejoin="round"
   stroke-width="3.000000"
   d=" M451.000000,369.500000   C452.738708,382.760101 448.572662,394.967346 443.947266,406.979706   C434.821381,430.680176 422.817657,453.069336 412.071167,476.033295   C406.856812,487.175720 399.631195,497.548401 396.665894,509.541016   C391.881989,528.888428 387.898682,548.447937 384.097534,568.018921   C381.703461,580.345215 376.761230,591.552795 370.978546,602.488647   C360.888214,621.570801 352.888916,641.541565 348.213013,662.547424   C344.583038,678.854614 338.143585,694.248901 334.262451,710.443054   C333.600433,713.205261 335.188232,717.383911 331.456696,718.892944   C328.847809,719.947998 325.809509,719.893616 323.004883,720.521790   C316.874817,721.894836 310.993378,724.288330 304.497955,724.057068   C296.098724,723.758057 290.678589,719.050171 286.568024,712.457581   C284.853424,709.707703 286.170868,706.917480 288.000000,704.500000  "
   id="path11" />



<path
   fill="none"
   opacity="1.000000"
   stroke="#000000"
   stroke-linecap="round"
   stroke-linejoin="round"
   stroke-width="3.000000"
   d=" M609.500000,603.000000   C622.666687,607.333313 635.780151,611.839172 649.025024,615.918762   C654.664246,617.655701 660.106506,620.021240 665.980286,621.106812   C668.444397,621.562195 669.964111,623.658264 670.020020,626.499634   C670.121948,631.682800 669.885193,635.880920 664.635315,639.686646   C633.195679,662.476746 602.207886,685.889038 570.984985,708.979736   C551.231812,723.588135 531.333557,738.000305 511.499908,752.499878   C487.333527,770.166931 463.165344,787.831543 439.000702,805.500916   C429.663239,812.328674 420.267761,819.079651 411.030823,826.040833   C407.086731,829.013306 403.186646,828.865417 398.999512,827.001099   C373.167114,815.499084 347.431702,803.772217 321.472504,792.563721   C295.229340,781.232666 269.138763,769.559937 242.940109,758.137329   C221.114304,748.621399 199.217194,739.268066 177.472488,729.561646   C174.941010,728.431641 172.117065,728.156006 171.976395,724.500916   C171.790359,719.666870 170.091537,714.969116 175.922546,711.374390   C193.470718,700.556152 210.677734,689.183838 227.997253,677.995728   C250.675095,663.346375 273.333466,648.666870 295.999695,633.999512   C298.072662,632.658142 300.033020,631.108948 302.500000,630.500000  "
   id="path15" />
<path
   fill="none"
   opacity="1.000000"
   stroke="#000000"
   stroke-linecap="round"
   stroke-linejoin="round"
   stroke-width="3.000000"
   d=" M669.000000,624.500000   C644.833313,642.500000 620.762512,660.630493 596.474792,678.465637   C568.583435,698.947021 540.219299,718.793701 512.575317,739.600098   C482.101868,762.536133 450.899139,784.470947 420.481628,807.475708   C416.281708,810.652100 411.920013,813.639771 407.446411,816.413574   C406.127380,817.231445 404.579620,817.533813 402.435303,816.658447   C383.419983,808.895569 364.774902,800.303528 345.983185,792.038208   C324.388916,782.540344 302.668060,773.330078 280.999634,764.000854   C254.667816,752.664001 228.284103,741.445740 202.025253,729.942322   C192.124451,725.604980 181.877472,721.996155 172.500000,716.500000  "
   id="path16" />
<path
   fill="none"
   opacity="1.000000"
   stroke="#000000"
   stroke-linecap="round"
   stroke-linejoin="round"
   stroke-width="3.000000"
   d=" M773.500000,718.500000   C782.273071,712.358765 788.011597,703.511230 793.916321,694.942383   C800.930542,684.763428 806.122375,673.667236 809.052673,661.512695   C814.438477,639.173340 809.755249,619.068665 795.962769,601.028442   C781.860901,582.583435 763.165039,569.943787 742.489563,560.021729   C723.195190,550.762329 703.067322,543.947815 682.001404,539.992371   C675.158997,538.707581 668.333313,537.333374 661.500000,536.000061  "
   id="path17" />
<path
   fill="none"
   opacity="1.000000"
   stroke="#000000"
   stroke-linecap="round"
   stroke-linejoin="round"
   stroke-width="3.000000"
   d=" M945.500000,1.500000   C939.197754,6.715221 935.094604,13.789770 930.078613,20.062864   C911.547668,43.238163 893.150879,66.526138 875.041748,90.032181   C846.230835,127.429367 816.393188,164.080063 791.010132,204.006424   C787.437073,209.626663 784.220764,215.484970 780.454529,220.968765   C772.330261,232.798203 764.665161,245.166321 750.493958,250.985291   C750.208740,251.102386 749.833313,251.000000 749.500000,251.000000  "
   id="path18" />
<path
   fill="none"
   opacity="1.000000"
   stroke="#000000"
   stroke-linecap="round"
   stroke-linejoin="round"
   stroke-width="3.000000"
   d=" M929.000000,587.500000   C926.869263,579.567627 922.131836,573.009521 917.442749,566.541504   C904.250916,548.344727 886.809875,534.735962 867.933472,523.108032   C840.782104,506.382599 811.486755,494.235535 780.989197,485.035919   C764.877991,480.175934 748.741882,475.335907 732.003052,472.978302   C730.813049,472.810669 729.666687,472.333344 728.500000,472.000000  "
   id="path19" />
<path
   fill="none"
   opacity="1.000000"
   stroke="#000000"
   stroke-linecap="round"
   stroke-linejoin="round"
   stroke-width="3.000000"
   d=" M444.000000,274.000000   C428.813843,284.461029 412.386597,292.449280 394.993073,298.480042   C390.163330,300.154663 386.754517,303.197144 385.007751,308.002808   C381.315704,318.160248 377.810364,328.388062 373.964081,338.486328   C369.021698,351.462494 361.859650,363.307617 354.467194,374.979218   C340.712616,396.695587 326.751099,418.288544 312.722504,439.819183   C306.779053,448.941071 301.158173,458.229492 295.580170,467.548004   C292.524323,472.653076 290.840637,478.317017 290.950623,484.500885   C291.333557,506.033234 292.459564,527.521851 293.951233,549.003357   C294.986969,563.918518 295.506470,578.888489 299.048248,593.488281   C301.134369,602.087585 303.037567,610.697876 304.000000,619.500000  "
   id="path20" />
<path
   fill="none"
   opacity="1.000000"
   stroke="#000000"
   stroke-linecap="round"
   stroke-linejoin="round"
   stroke-width="3.000000"
   d=" M711.500000,706.500000   C699.367493,715.048889 688.007385,724.592712 675.090027,732.153809   C653.644958,744.706543 630.968567,754.186096 607.496460,761.989319   C594.322815,766.368835 581.007385,770.320251 567.485413,773.436584   C551.665894,777.082458 535.793762,780.595825 519.500000,781.500000  "
   id="path21" />
<path
   fill="none"
   opacity="1.000000"
   stroke="#000000"
   stroke-linecap="round"
   stroke-linejoin="round"
   stroke-width="3.000000"
   d=" M623.000000,404.000000   C620.652283,409.427979 619.443787,415.113251 618.979126,420.998352   C618.580994,426.040039 615.129028,429.569214 612.505066,433.503387   C595.095154,459.606537 579.997864,487.146057 562.919250,513.447571   C556.755127,522.940552 549.992065,532.093384 542.923035,540.938416   C532.578552,553.881958 526.798767,569.023926 522.767761,584.569458   C518.018799,602.884155 518.253418,621.623596 523.981628,640.005737   C529.500183,657.714966 545.522949,664.725342 555.999268,665.026245   C562.538574,665.213989 568.009277,662.681519 571.389343,657.428833   C579.219788,645.260193 588.934570,634.132812 594.652893,620.850586   C597.429260,614.401733 601.275146,606.604065 596.005981,598.995850   C590.739502,591.391479 583.982239,584.884766 572.493896,586.966431   C567.974670,587.785278 564.409363,590.579529 561.113220,593.145447   C550.051697,601.756714 544.811218,613.374817 546.045776,627.495972   C546.825134,636.411194 556.773682,648.197388 566.500000,649.500000  "
   id="path22" />
<path
   fill="none"
   opacity="1.000000"
   stroke="#000000"
   stroke-linecap="round"
   stroke-linejoin="round"
   stroke-width="3.000000"
   d=" M936.500000,608.500000   C938.070923,616.608887 940.030396,624.658752 940.004639,633.000000   C939.928833,657.548828 934.133728,680.721436 921.887878,701.935303   C910.535034,721.601990 896.041138,738.904236 879.009888,754.011169   C877.601746,755.260193 876.333313,756.666626 875.000000,758.000000  "
   id="path23" />
<path
   fill="none"
   opacity="1.000000"
   stroke="#000000"
   stroke-linecap="round"
   stroke-linejoin="round"
   stroke-width="3.000000"
   d=" M658.500000,2.000000   C655.773987,2.262078 655.436829,4.889060 654.596252,6.548757   C644.593323,26.297716 633.022156,45.143826 621.425415,63.954037   C610.753235,81.264656 599.493347,98.210419 588.093384,115.063187   C582.686523,123.056328 581.084167,132.607346 579.505371,142.000900   C579.311035,143.157074 579.750000,144.138901 580.500000,145.000000  "
   id="path24" />
<path
   fill="none"
   opacity="1.000000"
   stroke="#000000"
   stroke-linecap="round"
   stroke-linejoin="round"
   stroke-width="3.000000"
   d=" M687.500000,502.000031   C693.000000,503.000031 698.489319,504.063751 704.001953,504.988220   C721.157166,507.865204 737.956421,512.099243 754.516541,517.448853   C776.647583,524.598083 797.498352,534.345337 817.000000,547.000000  "
   id="path25" />
<path
   fill="none"
   opacity="1.000000"
   stroke="#000000"
   stroke-linecap="round"
   stroke-linejoin="round"
   stroke-width="3.000000"
   d=" M289.500000,547.500000   C263.746704,554.748352 238.094116,562.260437 213.480148,572.954346   C198.450867,579.483948 184.640762,588.068726 171.000000,597.000000  "
   id="path26" />
<path
   fill="none"
   opacity="1.000000"
   stroke="#000000"
   stroke-linecap="round"
   stroke-linejoin="round"
   stroke-width="3.000000"
   d=" M560.000000,276.000000   C547.881226,287.729614 534.204041,297.276764 519.550354,305.588745   C513.057800,309.271515 506.757141,313.306519 499.989105,316.476746   C489.130646,321.562897 483.066772,330.412750 479.434814,341.478607   C477.643860,346.935242 475.166656,352.166656 472.999969,357.500000  "
   id="path27" />
<path
   fill="none"
   opacity="1.000000"
   stroke="#000000"
   stroke-linecap="round"
   stroke-linejoin="round"
   stroke-width="3.000000"
   d=" M334.000000,714.500000   C338.296539,718.406921 342.726074,721.557617 348.987335,722.136780   C359.127502,723.074890 365.425934,717.718018 371.003998,710.503052   C378.923340,700.259766 379.051758,688.528320 375.741882,677.074585   C373.286438,668.577637 363.311707,661.314087 353.885345,666.803101   C350.740295,668.634460 349.836914,672.299011 346.500000,673.500000  "
   id="path28" />
<path
   fill="none"
   opacity="1.000000"
   stroke="#000000"
   stroke-linecap="round"
   stroke-linejoin="round"
   stroke-width="3.000000"
   d=" M288.500000,578.000000   C251.219086,590.752014 215.719009,606.548157 188.500000,636.500000  "
   id="path29" />
<path
   fill="none"
   opacity="1.000000"
   stroke="#000000"
   stroke-linecap="round"
   stroke-linejoin="round"
   stroke-width="3.000000"
   d=" M717.500000,600.500000   C727.259094,607.818298 735.167358,616.716125 739.960327,628.016846   C746.755371,644.038025 745.167847,659.602722 736.468384,674.481506   C732.126526,681.907349 726.848145,688.681946 721.000000,695.000000  "
   id="path30" />
<path
   fill="none"
   opacity="1.000000"
   stroke="#000000"
   stroke-linecap="round"
   stroke-linejoin="round"
   stroke-width="3.000000"
   d=" M588.500000,375.500000   C596.230469,382.258057 598.906311,390.793945 599.204163,400.994049   C599.563049,413.289307 596.918213,425.291107 596.988464,437.500061   C597.010681,441.367432 597.660217,445.062073 599.500000,448.500000  "
   id="path31" />
<path
   fill="none"
   opacity="1.000000"
   stroke="#000000"
   stroke-linecap="round"
   stroke-linejoin="round"
   stroke-width="3.000000"
   d=" M179.500000,647.500000   C173.272797,656.752930 167.366699,666.247864 163.098953,676.541016   C157.958557,688.938904 155.151779,701.928955 156.000000,715.500000  "
   id="path32" />
<path
   fill="none"
   opacity="1.000000"
   stroke="#000000"
   stroke-linecap="round"
   stroke-linejoin="round"
   stroke-width="3.000000"
   d=" M528.000000,565.500000   C511.333344,560.666687 494.666656,555.833313 478.000000,551.000000  "
   id="path33" />
<path
   fill="none"
   opacity="1.000000"
   stroke="#000000"
   stroke-linecap="round"
   stroke-linejoin="round"
   stroke-width="3.000000"
   d=" M158.000000,606.000000   C150.936401,611.911499 143.912048,617.841248 137.448669,624.449768   C130.126846,631.936035 123.255653,639.729858 117.413269,648.441833   C116.694489,649.513672 116.212158,651.212158 114.500000,651.500000  "
   id="path34" />
<path
   fill="none"
   opacity="1.000000"
   stroke="#000000"
   stroke-linecap="round"
   stroke-linejoin="round"
   stroke-width="3.000000"
   d=" M577.500000,459.500031   C565.833313,462.333374 554.160706,465.142334 542.503479,468.014221   C538.814392,468.923096 535.166687,470.000000 531.500000,471.000000  "
   id="path35" />
<path
   fill="none"
   opacity="1.000000"
   stroke="#000000"
   stroke-linecap="round"
   stroke-linejoin="round"
   stroke-width="3.000000"
   d=" M399.500000,529.500000   C406.854767,533.499207 414.757660,534.507507 423.001831,534.031494   C429.491455,533.656799 436.021393,534.500854 442.500000,533.500000  "
   id="path36" />
<path
   fill="none"
   opacity="1.000000"
   stroke="#000000"
   stroke-linecap="round"
   stroke-linejoin="round"
   stroke-width="3.000000"
   d=" M649.000000,383.000000   C642.907837,390.891968 635.643738,397.847534 630.469482,406.481720   C627.810120,410.919281 624.777466,415.131866 622.040588,419.525269   C621.382324,420.581940 620.922424,421.569702 619.500000,421.500000  "
   id="path37" />
<path
   fill="none"
   opacity="1.000000"
   stroke="#000000"
   stroke-linecap="round"
   stroke-linejoin="round"
   stroke-width="3.000000"
   d=" M560.000000,431.000000   C563.848145,439.486328 569.877380,446.012238 578.019897,450.463623   C583.757935,453.600555 588.572510,457.784363 593.000000,462.500000  "
   id="path38" />
<path
   fill="none"
   opacity="1.000000"
   stroke="#000000"
   stroke-linecap="round"
   stroke-linejoin="round"
   stroke-width="3.000000"
   d=" M595.500000,536.500000   C605.232117,544.897278 615.205078,552.975952 625.972412,560.041992   C627.722717,561.190613 629.589600,561.836243 631.500000,562.500000  "
   id="path39" />
<path
   fill="none"
   opacity="1.000000"
   stroke="#000000"
   stroke-linecap="round"
   stroke-linejoin="round"
   stroke-width="3.000000"
   d=" M535.500000,424.500000   C538.100220,426.411041 537.332947,429.475098 537.938843,432.014587   C539.666931,439.257263 537.771606,446.188538 535.448669,452.982452   C534.821533,454.816620 534.049133,456.524078 534.500000,458.500000  "
   id="path40" />
<path
   fill="none"
   opacity="1.000000"
   stroke="#000000"
   stroke-linecap="round"
   stroke-linejoin="round"
   stroke-width="3.000000"
   d=" M408.000000,512.500000   C418.065125,514.688293 428.560425,513.971375 438.496460,517.011597   C439.855530,517.427490 441.166656,518.000000 442.500000,518.500000  "
   id="path41" />
<path
   fill="none"
   opacity="1.000000"
   stroke="#000000"
   stroke-linecap="round"
   stroke-linejoin="round"
   stroke-width="3.000000"
   d=" M446.500000,500.500000   C435.540039,499.118805 424.537140,498.683105 413.500000,499.000000  "
   id="path42" />
<path
   fill="none"
   opacity="1.000000"
   stroke="#000000"
   stroke-linecap="round"
   stroke-linejoin="round"
   stroke-width="3.000000"
   d=" M338.500000,478.500000   C346.342865,479.950195 354.278564,480.860565 362.018951,482.929108   C364.972870,483.718506 367.500244,484.703308 369.000000,487.500000  "
   id="path43" />
<path
   fill="none"
   opacity="1.000000"
   stroke="#000000"
   stroke-linecap="round"
   stroke-linejoin="round"
   stroke-width="3.000000"
   d=" M835.500000,560.500000   C843.094238,567.850037 850.338806,575.494507 856.021851,584.486206   C856.832336,585.768494 858.291443,586.687622 858.000000,588.500000  "
   id="path44" />
<path
   fill="none"
   opacity="1.000000"
   stroke="#000000"
   stroke-linecap="round"
   stroke-linejoin="round"
   stroke-width="3.000000"
   d=" M369.000000,631.000000   C369.666656,631.333313 370.350128,631.985352 370.997437,631.951294   C378.371063,631.563171 385.671417,632.557068 393.001617,632.971252   C393.822937,633.017578 394.666687,632.666687 395.500000,632.500061  "
   id="path45" />
<path
   fill="none"
   opacity="1.000000"
   stroke="#000000"
   stroke-linecap="round"
   stroke-linejoin="round"
   stroke-width="3.000000"
   d=" M373.500000,612.500000   C381.170197,616.621765 389.641632,618.126221 398.000000,620.000000  "
   id="path46" />
<path
   fill="none"
   opacity="1.000000"
   stroke="#000000"
   stroke-linecap="round"
   stroke-linejoin="round"
   stroke-width="3.000000"
   d=" M308.500000,623.500000   C311.935394,626.758423 316.208984,626.831360 320.496735,626.462097   C324.179138,626.144958 327.833344,625.500000 331.500000,625.000000  "
   id="path47" />
<path
   fill="none"
   opacity="1.000000"
   stroke="#000000"
   stroke-linecap="round"
   stroke-linejoin="round"
   stroke-width="3.000000"
   d=" M335.500000,494.500000   C341.105164,496.807495 346.826385,498.461365 353.002716,498.039764   C354.484436,497.938599 356.000000,498.333344 357.500000,498.500000  "
   id="path48" />
<path
   fill="none"
   opacity="1.000000"
   stroke="#000000"
   stroke-linecap="round"
   stroke-linejoin="round"
   stroke-width="3.000000"
   d=" M292.000000,478.000000   C298.367096,481.722809 305.317596,482.455658 312.500000,482.000000  "
   id="path49" />
<path
   fill="none"
   opacity="1.000000"
   stroke="#000000"
   stroke-linecap="round"
   stroke-linejoin="round"
   stroke-width="3.000000"
   d=" M644.000000,540.000000   C638.453491,534.345886 631.883179,530.288879 624.500000,527.500000  "
   id="path50" />
<path
   fill="none"
   opacity="1.000000"
   stroke="#000000"
   stroke-linecap="round"
   stroke-linejoin="round"
   stroke-width="3.000000"
   d=" M359.500000,515.000000   C352.188019,515.803406 344.865936,516.170654 337.499023,516.079834   C334.410767,516.041748 331.654846,515.425232 329.000000,514.000000  "
   id="path51" />
<path
   fill="none"
   opacity="1.000000"
   stroke="#000000"
   stroke-linecap="round"
   stroke-linejoin="round"
   stroke-width="3.000000"
   d=" M300.500000,460.000000   C304.278656,462.270844 308.615143,460.078827 312.500000,461.500000  "
   id="path52" />
<path
   fill="none"
   opacity="1.000000"
   stroke="#000000"
   stroke-linecap="round"
   stroke-linejoin="round"
   stroke-width="2.000000"
   d=" M615.500000,532.500000   C620.119446,533.794617 623.081787,537.630127 627.000000,540.000000  "
   id="path53" />
<path
   fill="none"
   opacity="1.000000"
   stroke="#000000"
   stroke-linecap="round"
   stroke-linejoin="round"
   stroke-width="3.000000"
   d=" M405.000000,818.000000   C405.000000,821.166687 405.000000,824.333313 405.000000,827.500000  "
   id="path54" />
<path
   fill="none"
   opacity="1.000000"
   stroke="#000000"
   stroke-linecap="round"
   stroke-linejoin="round"
   stroke-width="3.000000"
   d=" M328.500000,611.500000   C324.393494,609.829041 320.111084,612.556396 316.000000,611.000000  "
   id="path55" />
<path
   fill="none"
   opacity="1.000000"
   stroke="#000000"
   stroke-linecap="round"
   stroke-linejoin="round"
   stroke-width="2.000000"
   d=" M312.500000,604.500000   C316.788818,606.403748 314.175293,610.608215 315.500000,613.500000  "
   id="path56" />
</svg>
